<svg aria-hidden="true" style="position:absolute;width:0;height:0" xmlns="http://www.w3.org/2000/svg" overflow="hidden">
<symbol id="icon-smartphone" viewBox="0 0 20 32" >
<path d="M17 0H3C1.346 0 0 1.346 0 3v26c0 1.654 1.346 3 3 3h14c1.654 0 3-1.346 3-3V3c0-1.654-1.346-3-3-3zM3 2h14c.552 0 1 .448 1 1v21H2V3c0-.552.448-1 1-1zm14 28H3c-.552 0-1-.448-1-1v-3h16v3c0 .552-.448 1-1 1z"/>
<path d="M4.707 27.478c.391.365.391.956 0 1.321s-1.024.365-1.414 0c-.391-.365-.391-.956 0-1.321s1.024-.365 1.414 0z"/>
</symbol>
<symbol id="icon-email" viewBox="0 0 32 32">
<path d="M26.667 5.333h-21.333c-1.467 0-2.653 1.2-2.653 2.667l-0.013 16c0 1.467 1.2 2.667 2.667 2.667h21.333c1.467 0 2.667-1.2 2.667-2.667v-16c0-1.467-1.2-2.667-2.667-2.667zM26.133 11l-9.427 5.893c-0.427 0.267-0.987 0.267-1.413 0l-9.427-5.893c-0.333-0.213-0.533-0.573-0.533-0.96 0-0.893 0.973-1.427 1.733-0.96l8.933 5.587 8.933-5.587c0.76-0.467 1.733 0.067 1.733 0.96 0 0.387-0.2 0.747-0.533 0.96z"></path>
</symbol>
<symbol id="icon-location" viewBox="0 0 32 32">
<path d="M197.849 0C122.131 0 60.531 61.609 60.531 137.329c0 72.887 124.591 243.177 129.896 250.388l4.951 6.738a3.064 3.064 0 0 0 2.471 1.255 3.08 3.08 0 0 0 2.486-1.255l4.948-6.738c5.308-7.211 129.896-177.501 129.896-250.388C335.179 61.609 273.569 0 197.849 0zm0 88.138c27.13 0 49.191 22.062 49.191 49.191 0 27.115-22.062 49.191-49.191 49.191-27.114 0-49.191-22.076-49.191-49.191 0-27.129 22.076-49.191 49.191-49.191z"/></path>
</symbol>
</svg>
